<?xml version="1.0" encoding="utf-8"?>
<svg width="356" height="154" viewBox="0 0 356 154" xmlns="http://www.w3.org/2000/svg">
<rect id="frame" x="0" y="0" width="356" height="154" fill="#f7f7f7" stroke="none" stroke-width="0"/>

<!-- Entity Product -->
<g class="page_0_CW2tclTa diagram_page" visibility="visible">
	<g>
		<rect x="41" y="9" width="78" height="25" fill="#fdb863" stroke="#fdb863" stroke-width="0" opacity="1"/>
		<rect x="41" y="34" width="78" height="111" fill="#fee0b6" stroke="#fee0b6" stroke-width="0" opacity="1"/>
		<rect x="41" y="9" width="78" height="136" fill="none" stroke="#e08214" stroke-width="2" opacity="1"/>
		<line x1="41" y1="34" x2="119" y2="34" stroke="#e08214" stroke-width="1"/>
	</g>
	<text x="57" y="26.75" fill="#000" font-family="Verdana" font-size="12">Product</text>
	<text x="46" y="51.8" fill="#000" font-family="Verdana" font-size="12">product_id</text>
	<line x1="46" y1="54" x2="111" y2="54" stroke="#000" stroke-width="1"/>
	<text x="46" y="68.8" fill="#000" font-family="Verdana" font-size="12">title</text>
	<text x="46" y="85.8" fill="#000" font-family="Verdana" font-size="12">img</text>
	<text x="46" y="102.8" fill="#000" font-family="Verdana" font-size="12">price</text>
	<text x="46" y="119.8" fill="#000" font-family="Verdana" font-size="12">description</text>
	<text x="46" y="136.8" fill="#000" font-family="Verdana" font-size="12">quantity</text>
</g>

<!-- Entity User -->
<g class="page_0_CW2tclTa diagram_page" visibility="visible">
	<g>
		<rect x="247" y="26" width="68" height="25" fill="#fdb863" stroke="#fdb863" stroke-width="0" opacity="1"/>
		<rect x="247" y="51" width="68" height="77" fill="#fee0b6" stroke="#fee0b6" stroke-width="0" opacity="1"/>
		<rect x="247" y="26" width="68" height="102" fill="none" stroke="#e08214" stroke-width="2" opacity="1"/>
		<line x1="247" y1="51" x2="315" y2="51" stroke="#e08214" stroke-width="1"/>
	</g>
	<text x="267" y="43.75" fill="#000" font-family="Verdana" font-size="12">User</text>
	<text x="252" y="68.8" fill="#000" font-family="Verdana" font-size="12">user_id</text>
	<line x1="252" y1="71" x2="298" y2="71" stroke="#000" stroke-width="1"/>
	<text x="252" y="85.8" fill="#000" font-family="Verdana" font-size="12">email</text>
	<text x="252" y="102.8" fill="#000" font-family="Verdana" font-size="12">password</text>
	<text x="252" y="119.8" fill="#000" font-family="Verdana" font-size="12">role</text>
</g>
</svg>